<svg width="20" height="20" viewBox="0 0 20 20" fill="none" xmlns="http://www.w3.org/2000/svg">
<path d="M19 11.8963C18.7348 11.8963 18.4804 12.0007 18.2929 12.1867C18.1054 12.3726 18 12.6247 18 12.8877V16.8531C18 17.116 17.8946 17.3682 17.7071 17.5541C17.5196 17.74 17.2652 17.8444 17 17.8444H3C2.73478 17.8444 2.48043 17.74 2.29289 17.5541C2.10536 17.3682 2 17.116 2 16.8531V12.8877C2 12.6247 1.89464 12.3726 1.70711 12.1867C1.51957 12.0007 1.26522 11.8963 1 11.8963C0.734784 11.8963 0.48043 12.0007 0.292893 12.1867C0.105357 12.3726 0 12.6247 0 12.8877V16.8531C0 17.6419 0.316071 18.3983 0.87868 18.9561C1.44129 19.5138 2.20435 19.8272 3 19.8272H17C17.7956 19.8272 18.5587 19.5138 19.1213 18.9561C19.6839 18.3983 20 17.6419 20 16.8531V12.8877C20 12.6247 19.8946 12.3726 19.7071 12.1867C19.5196 12.0007 19.2652 11.8963 19 11.8963ZM9.29 13.5915C9.3851 13.6818 9.49725 13.7525 9.62 13.7997C9.7397 13.8522 9.86913 13.8792 10 13.8792C10.1309 13.8792 10.2603 13.8522 10.38 13.7997C10.5028 13.7525 10.6149 13.6818 10.71 13.5915L14.71 9.62609C14.8983 9.43941 15.0041 9.18622 15.0041 8.92222C15.0041 8.65822 14.8983 8.40503 14.71 8.21836C14.5217 8.03168 14.2663 7.92681 14 7.92681C13.7337 7.92681 13.4783 8.03168 13.29 8.21836L11 10.4985V0.991358C11 0.728433 10.8946 0.476278 10.7071 0.290362C10.5196 0.104446 10.2652 0 10 0C9.73478 0 9.48043 0.104446 9.29289 0.290362C9.10536 0.476278 9 0.728433 9 0.991358V10.4985L6.71 8.21836C6.61676 8.12593 6.50607 8.0526 6.38425 8.00258C6.26243 7.95255 6.13186 7.92681 6 7.92681C5.86814 7.92681 5.73757 7.95255 5.61575 8.00258C5.49393 8.0526 5.38324 8.12593 5.29 8.21836C5.19676 8.31079 5.1228 8.42052 5.07234 8.54129C5.02188 8.66206 4.99591 8.7915 4.99591 8.92222C4.99591 9.05294 5.02188 9.18238 5.07234 9.30315C5.1228 9.42392 5.19676 9.53365 5.29 9.62609L9.29 13.5915Z" fill="black"/>
</svg>
