<svg xmlns="http://www.w3.org/2000/svg" enable-background="new 0 0 64 64" viewBox="0 0 64 64" id="theodolite"><linearGradient id="a" x1="32" x2="32" y1="0" y2="58.375" gradientTransform="matrix(1 0 0 -1 0 64)" gradientUnits="userSpaceOnUse"><stop offset="0" stop-color="#ff8af4"></stop><stop offset="1" stop-color="#fff1ff"></stop></linearGradient><path fill="url(#a)" d="M37.6,5.6h-15v22.5h15V5.6z M48.9,15c-1,0-1.9,0.8-1.9,1.9v1.9h-5.6c-1,0-1.9,0.8-1.9,1.9s0.8,1.9,1.9,1.9
				H47v1.9c0,1,0.8,1.9,1.9,1.9s1.9-0.8,1.9-1.9v-7.5C50.8,15.8,49.9,15,48.9,15z M45.1,60.2h-2.6l-9.4-19h4.5c1,0,1.9-0.8,1.9-1.9
				s-0.8-1.9-1.9-1.9H32v-5.6c0-1-0.8-1.9-1.9-1.9s-1.9,0.8-1.9,1.9v5.6h-5.6c-1,0-1.9,0.8-1.9,1.9s0.8,1.9,1.9,1.9h4.5l-9.4,19
				h-2.6c-1,0-1.9,0.8-1.9,1.9s0.8,1.9,1.9,1.9h3.8c0.7,0,1.4-0.4,1.7-1l7.7-15.6v14.8c0,1,0.8,1.9,1.9,1.9s1.9-0.8,1.9-1.9V47.3
				L39.7,63c0.3,0.6,1,1,1.7,1h3.8c1,0,1.9-0.8,1.9-1.9S46.2,60.2,45.1,60.2z"></path><linearGradient id="b" x1="30.125" x2="30.125" y1="30.25" y2="64" gradientTransform="matrix(1 0 0 -1 0 64)" gradientUnits="userSpaceOnUse"><stop offset="0" stop-color="#622194"></stop><stop offset="1" stop-color="#ff81ff"></stop></linearGradient><path fill="url(#b)" d="M37.6,0h-15C19.5,0,17,2.5,17,5.6v22.5
				c0,3.1,2.5,5.6,5.6,5.6h15c3.1,0,5.6-2.5,5.6-5.6V5.6C43.2,2.5,40.7,0,37.6,0z M30.1,26.2c-1.1,0-1.9-0.8-1.9-1.9
				c0-1.1,0.8-1.9,1.9-1.9s1.9,0.8,1.9,1.9C32,25.4,31.2,26.2,30.1,26.2z M30.1,31.2c-1.1,0-1.9-0.8-1.9-1.9c0-1.1,0.8-1.9,1.9-1.9
				s1.9,0.8,1.9,1.9C32,30.3,31.2,31.2,30.1,31.2z M30.1,5.6c-1.1,0-1.9-0.8-1.9-1.9c0-1.1,0.8-1.9,1.9-1.9S32,2.7,32,3.8
				C32,4.8,31.2,5.6,30.1,5.6z M30.1,18.8c-3.1,0-5.6-2.5-5.6-5.6c0-3.1,2.5-5.6,5.6-5.6s5.6,2.5,5.6,5.6
				C35.8,16.2,33.2,18.8,30.1,18.8z"></path></svg>